<?xml version="1.0" standalone="no"?>
<!DOCTYPE svg PUBLIC "-//W3C//DTD SVG 20010904//EN"
 "http://www.w3.org/TR/2001/REC-SVG-20010904/DTD/svg10.dtd">
<svg version="1.0" xmlns="http://www.w3.org/2000/svg"
 width="570.000000pt" height="570.000000pt" viewBox="0 0 570.000000 570.000000"
 preserveAspectRatio="xMidYMid meet">
<metadata>
Created by potrace 1.11, written by Peter Selinger 2001-2013
</metadata>
<g transform="translate(0.000000,570.000000) scale(0.100000,-0.100000)"
fill="#000000" stroke="none">
<path d="M2757 5594 c-29 -27 -44 -34 -62 -30 -14 4 -25 1 -28 -7 -3 -8 -11
-5 -26 11 -25 25 -50 20 -29 -5 11 -13 10 -18 -7 -27 -11 -6 -37 -28 -57 -48
-21 -21 -44 -38 -53 -38 -9 0 -36 -11 -61 -25 -44 -24 -91 -34 -80 -16 3 5 -1
12 -10 15 -8 3 -12 10 -9 16 3 5 0 10 -8 10 -16 0 -67 -68 -67 -91 0 -11 -2
-12 -9 0 -7 10 -12 9 -24 -8 l-15 -22 -37 21 c-21 12 -39 19 -42 17 -2 -3 10
-11 26 -18 32 -14 55 -47 26 -35 -10 4 -14 2 -9 -5 13 -21 -115 -117 -138
-103 -5 3 -18 -2 -29 -12 -10 -9 -19 -12 -19 -6 0 6 6 13 13 15 8 4 7 6 -3 6
-8 1 -28 -8 -45 -19 -16 -11 -25 -20 -20 -20 21 -1 -41 -40 -63 -40 -13 0 -20
-4 -17 -10 4 -6 -6 -7 -27 -4 -32 6 -32 6 -13 -9 17 -14 18 -16 3 -17 -9 0
-20 5 -23 10 -3 6 -18 10 -33 10 -25 -1 -25 -2 -9 -14 24 -18 22 -29 -4 -16
-11 6 -28 9 -37 7 -14 -4 -13 -5 3 -6 23 -1 75 -43 75 -60 0 -7 -5 -9 -11 -5
-7 4 -7 -1 1 -16 8 -15 8 -20 1 -16 -6 4 -11 2 -11 -3 0 -6 -7 -11 -16 -11
-21 0 -84 -49 -84 -67 0 -7 -7 -16 -15 -19 -8 -4 -12 -11 -8 -17 3 -5 1 -7 -5
-3 -6 3 -27 -4 -47 -16 -53 -33 -210 -195 -211 -218 -1 -11 -14 -38 -29 -60
-15 -22 -25 -43 -21 -47 3 -3 -1 -17 -10 -31 -13 -20 -14 -26 -3 -33 11 -6 11
-20 0 -76 -7 -37 -14 -79 -16 -93 -3 -14 -11 -54 -20 -90 -54 -228 -58 -256
-41 -279 9 -12 7 -13 -6 -8 -12 4 -15 2 -12 -7 3 -7 -2 -20 -10 -29 -18 -18
-21 -31 -5 -22 12 8 1 -194 -12 -211 -7 -8 5 -249 14 -284 1 -3 -7 -19 -16
-37 -9 -18 -17 -42 -16 -55 1 -18 3 -15 9 9 9 38 36 83 50 83 14 0 12 -45 -4
-84 -8 -20 -12 -51 -9 -77 3 -24 -1 -57 -8 -74 -19 -45 -19 -94 0 -105 14 -8
14 -9 -3 -10 -12 0 -16 -5 -12 -16 3 -9 6 -17 6 -20 0 -2 7 -1 15 2 8 4 15 17
15 30 0 14 7 36 16 49 9 13 13 29 9 35 -4 7 2 18 13 26 12 8 19 21 16 29 -11
28 14 15 44 -22 26 -34 43 -85 47 -148 1 -11 7 -30 14 -43 6 -12 9 -27 5 -33
-3 -6 -8 -27 -10 -47 -2 -26 -1 -33 6 -22 5 8 10 25 10 37 0 26 15 38 26 21
10 -16 22 16 23 62 2 73 62 270 83 270 3 0 10 15 14 32 3 18 14 40 23 48 40
36 80 100 104 168 15 39 27 75 28 80 3 12 10 35 22 67 7 17 10 34 9 39 -2 5 0
16 4 25 4 9 8 30 10 46 1 17 5 38 9 48 4 9 3 17 -2 17 -6 0 -7 19 -3 48 4 26
6 63 3 82 -3 19 -5 40 -4 45 0 6 1 40 2 78 2 37 6 67 9 67 4 0 7 6 7 14 0 22
131 192 158 204 19 9 25 9 25 -1 0 -6 8 3 17 21 14 29 17 30 28 16 10 -15 13
-10 19 33 4 32 12 53 22 57 8 3 13 9 10 14 -6 10 72 87 81 79 3 -4 1 -7 -5 -7
-7 0 -12 -5 -12 -11 0 -8 5 -8 15 1 8 7 15 20 15 30 0 11 10 20 26 24 18 5 24
11 20 23 -5 12 -1 14 14 10 11 -3 20 -1 20 4 0 5 12 9 27 9 26 0 26 1 7 16
-10 8 -14 13 -7 10 17 -9 43 4 43 21 0 7 6 13 13 11 6 -2 30 3 52 9 22 7 59
17 83 23 23 6 40 15 37 20 -10 16 25 11 41 -5 18 -17 34 -20 34 -5 0 6 7 10
15 10 8 0 15 5 15 11 0 5 -5 7 -12 3 -7 -4 -8 -3 -4 4 5 9 13 9 26 2 26 -14
43 -13 37 3 -3 8 3 13 14 13 11 0 19 -5 19 -11 0 -14 48 -35 65 -29 7 3 21 -5
30 -18 13 -17 16 -18 11 -4 -6 18 -5 18 19 2 14 -9 25 -13 25 -9 0 5 5 0 11
-10 6 -9 14 -15 19 -12 5 3 31 -5 58 -19 27 -14 52 -22 56 -19 3 4 6 1 6 -5 0
-6 10 -14 21 -17 16 -5 18 -9 9 -15 -8 -5 -2 -10 18 -15 18 -3 36 -4 41 0 6 3
18 1 28 -5 10 -5 47 -16 83 -24 36 -7 92 -21 125 -31 33 -9 65 -18 70 -19 6
-1 15 -4 20 -7 13 -8 85 -23 107 -22 10 0 15 -4 12 -8 -3 -5 -2 -9 3 -10 62
-6 173 -50 173 -69 0 -6 4 -9 9 -5 5 3 40 -6 77 -20 36 -14 77 -25 90 -25 13
0 24 -4 24 -10 0 -9 101 -60 119 -60 4 0 16 -9 26 -20 10 -11 25 -19 34 -18
11 2 15 -3 13 -16 -3 -14 1 -17 13 -12 9 3 13 2 10 -4 -3 -6 -13 -10 -21 -10
-8 0 -12 -5 -8 -11 4 -8 9 -8 17 0 6 6 20 11 32 10 11 0 14 -3 7 -6 -16 -6 32
-53 54 -53 8 0 13 -4 10 -8 -2 -4 -1 -14 4 -22 7 -12 12 -12 22 -2 18 18 26
15 21 -12 -4 -18 0 -26 17 -31 11 -4 25 -18 31 -32 12 -33 21 -246 10 -238
-11 6 -2 -35 12 -53 7 -9 4 -12 -11 -10 -11 2 -20 -1 -19 -7 1 -5 5 -9 10 -7
15 5 6 -9 -25 -37 -30 -27 -45 -70 -27 -81 4 -3 9 -19 11 -35 2 -17 7 -33 12
-36 5 -4 5 -12 1 -19 -5 -8 -15 -5 -34 13 -21 19 -45 26 -121 36 -52 7 -97 17
-101 23 -4 7 -9 6 -14 -2 -6 -9 -10 -9 -16 1 -6 10 -9 11 -9 2 0 -9 -15 -13
-42 -12 -38 1 -40 2 -18 10 19 6 12 8 -27 5 -29 -2 -50 0 -48 5 3 4 -4 5 -15
2 -11 -3 -20 -9 -20 -14 0 -5 -11 -9 -25 -9 -18 0 -23 4 -19 15 7 18 -17 20
-33 4 -16 -16 -32 -2 -26 24 4 18 3 19 -6 7 -6 -8 -11 -26 -11 -40 0 -14 -5
-32 -10 -40 -7 -11 -10 -7 -10 18 0 31 -13 42 -25 21 -5 -6 -12 -4 -21 8 -13
17 -13 17 -14 -4 0 -12 -4 -24 -10 -28 -5 -3 -7 -12 -4 -19 10 -26 -14 -26
-30 -1 -19 29 -36 33 -36 8 0 -9 -3 -13 -7 -10 -3 4 -12 -1 -18 -10 -11 -15
-15 -15 -29 -4 -14 12 -16 11 -15 -5 4 -45 0 -56 -22 -49 -17 6 -20 3 -17 -16
2 -14 -2 -24 -9 -24 -29 0 -36 -23 -18 -57 12 -23 18 -66 22 -148 6 -147 5
-140 15 -140 4 0 8 -5 8 -11 0 -15 41 -71 47 -65 3 3 17 -9 30 -25 15 -17 32
-28 40 -25 7 3 16 -1 20 -9 3 -9 15 -15 27 -14 42 4 55 -1 50 -16 -4 -9 0 -15
9 -15 8 0 18 6 20 13 4 10 6 10 6 0 1 -7 8 -13 16 -13 8 0 15 -4 15 -10 0 -12
55 -41 63 -33 4 3 9 -2 13 -11 4 -9 17 -16 33 -16 15 0 31 -4 37 -10 5 -5 52
-14 104 -20 127 -13 128 -13 104 5 -18 14 -17 15 11 9 17 -3 35 -7 41 -9 6 -2
17 1 24 5 11 7 10 11 -3 25 -24 23 -21 28 13 20 20 -4 30 -3 30 5 0 7 7 10 14
7 10 -4 13 -1 9 9 -5 14 6 18 40 15 17 -2 20 21 4 46 -4 6 -3 15 3 18 6 4 9 1
8 -6 -2 -6 3 -14 10 -16 6 -3 12 0 12 6 0 6 13 11 29 11 37 0 42 15 36 103 -4
67 -4 65 15 -38 11 -60 19 -122 17 -137 -2 -16 2 -29 10 -32 7 -3 13 -20 14
-38 0 -20 3 -27 7 -18 4 8 19 33 33 55 14 22 33 65 43 95 9 30 21 64 26 75 41
89 68 256 71 440 1 49 7 89 16 103 8 13 14 38 15 55 0 46 7 67 23 67 8 0 18
22 26 58 6 31 18 67 25 79 15 24 19 47 7 40 -5 -3 -8 14 -8 36 0 23 -3 58 -5
77 -4 29 -2 35 13 34 19 -2 23 11 7 21 -5 3 -10 15 -10 26 0 11 -4 17 -10 14
-5 -3 -10 -1 -10 4 0 6 5 11 10 11 6 0 10 5 10 10 0 6 -5 9 -11 8 -5 -2 -17
15 -24 37 -17 48 -18 58 -5 50 6 -3 10 -1 10 4 0 6 -7 11 -15 11 -8 0 -26 17
-40 38 -14 20 -32 47 -41 59 -15 21 -15 22 7 18 12 -3 26 -10 31 -17 4 -8 8
-9 8 -2 0 16 -37 47 -48 40 -6 -4 -8 3 -5 15 4 16 8 17 14 7 6 -9 9 -2 9 20 0
18 -4 31 -9 28 -14 -9 -41 4 -41 20 0 16 26 19 35 4 9 -15 25 -12 25 5 0 8 -6
15 -12 15 -10 0 -10 2 0 9 8 4 12 19 10 32 -2 19 -11 25 -38 29 -26 4 -34 9
-32 23 2 9 -2 17 -8 17 -5 0 -10 -7 -10 -15 0 -8 -19 4 -45 30 -24 25 -49 45
-55 45 -5 0 -10 11 -10 24 0 32 -35 108 -45 98 -4 -4 -4 3 -1 15 5 16 -4 37
-36 81 -24 32 -52 63 -63 68 -11 6 -19 15 -18 20 1 6 -9 17 -22 24 -14 7 -25
17 -25 21 0 12 -69 79 -80 79 -6 0 -10 6 -10 14 0 8 -10 16 -21 18 -12 2 -36
20 -53 41 -26 32 -28 40 -16 48 12 9 12 10 -2 5 -26 -8 -22 5 10 32 l27 23
-42 -23 -42 -23 -21 28 c-43 54 -55 61 -96 56 -3 0 -14 9 -24 21 -10 12 -22
20 -27 18 -4 -2 -15 17 -24 42 -40 110 -53 129 -62 93 -3 -10 -6 2 -7 27 -1
25 -6 54 -11 65 -7 16 -8 13 -4 -12 2 -19 0 -33 -6 -33 -6 0 -9 -8 -8 -17 3
-39 -1 -64 -12 -58 -6 4 -8 13 -5 20 3 8 0 30 -5 50 -7 24 -7 40 0 49 12 15
-2 41 -18 32 -6 -4 -11 -17 -11 -29 -1 -34 -23 -57 -48 -50 -19 5 -27 20 -23
46 0 4 -3 7 -9 7 -5 0 -10 -11 -10 -25 0 -14 -4 -25 -10 -25 -5 0 -7 7 -4 15
8 19 -5 19 -26 0 -15 -14 -20 -13 -44 10 -15 14 -34 25 -42 25 -7 0 -14 5 -14
10 0 6 5 10 12 10 8 0 9 3 2 10 -7 7 -20 7 -40 0 -60 -21 -124 -28 -124 -15 0
7 -7 16 -16 19 -8 3 -12 2 -9 -4 3 -6 1 -10 -4 -10 -6 0 -11 4 -11 9 0 4 -17
6 -37 4 -86 -10 -203 -8 -199 3 3 8 -7 9 -36 2 -22 -4 -55 -6 -74 -2 -22 4
-40 2 -51 -7 -14 -12 -15 -11 -8 11 4 14 12 31 17 38 18 22 4 12 -35 -24z
m631 -70 c32 -9 27 -20 -8 -19 -17 0 -30 5 -30 12 0 15 5 15 38 7z m112 -99
c-10 -12 -14 -12 -26 0 -19 19 -18 23 9 27 26 4 33 -7 17 -27z m21 -18 c-10
-9 -11 -8 -5 6 3 10 9 15 12 12 3 -3 0 -11 -7 -18z m-1791 -487 c0 -5 -7 -7
-15 -4 -8 4 -15 8 -15 10 0 2 7 4 15 4 8 0 15 -4 15 -10z m2567 -96 c2 -7 -6
-10 -22 -7 -14 3 -25 10 -25 15 0 13 43 6 47 -8z m-1234 -191 c-7 -2 -19 -2
-25 0 -7 3 -2 5 12 5 14 0 19 -2 13 -5z m1362 -53 c3 -5 1 -10 -4 -10 -6 0
-11 5 -11 10 0 6 2 10 4 10 3 0 8 -4 11 -10z m160 -390 c3 -5 1 -10 -4 -10 -6
0 -11 5 -11 10 0 6 2 10 4 10 3 0 8 -4 11 -10z m-310 -100 c3 -5 1 -10 -4 -10
-6 0 -11 5 -11 10 0 6 2 10 4 10 3 0 8 -4 11 -10z m-325 -863 c47 -16 68 -29
77 -47 9 -19 9 -26 0 -32 -6 -4 -15 -2 -19 5 -4 6 -10 9 -13 5 -3 -3 -27 1
-53 9 -65 20 -101 27 -144 27 -21 0 -38 4 -38 8 0 9 14 11 48 8 12 -1 22 4 22
10 0 6 4 9 9 6 5 -3 14 1 21 9 15 18 10 19 90 -8z m115 -77 c3 -5 1 -10 -4
-10 -6 0 -11 5 -11 10 0 6 2 10 4 10 3 0 8 -4 11 -10z m-285 -101 c0 -6 5 -7
10 -4 14 8 70 -4 70 -15 0 -10 -71 -1 -84 11 -5 5 -15 4 -22 -2 -9 -7 -21 -6
-40 4 l-28 14 47 1 c26 1 47 -3 47 -9z m549 -62 c1 -10 -3 -15 -9 -12 -5 3
-10 21 -9 38 0 27 2 29 9 12 5 -11 9 -28 9 -38z"/>
<path d="M1900 5159 c0 -5 5 -7 10 -4 6 3 10 8 10 11 0 2 -4 4 -10 4 -5 0 -10
-5 -10 -11z"/>
<path d="M4690 3970 c0 -5 5 -10 10 -10 6 0 10 5 10 10 0 6 -4 10 -10 10 -5 0
-10 -4 -10 -10z"/>
<path d="M2310 3745 c14 -17 13 -18 -7 -13 -27 7 -29 0 -5 -19 16 -13 15 -14
-8 -8 -26 7 -62 13 -93 14 -11 1 -15 6 -11 13 5 8 0 9 -14 6 -12 -4 -20 -2
-16 3 3 5 1 9 -5 9 -5 0 -13 -4 -16 -10 -3 -5 -25 -10 -48 -11 -36 -1 -38 -2
-17 -9 l25 -8 -25 -2 -25 -2 25 -7 c22 -6 23 -8 7 -14 -10 -4 -30 -4 -44 -1
-18 5 -24 3 -19 -5 4 -6 15 -11 25 -11 10 0 23 -6 30 -13 12 -16 125 -22 116
-7 -12 19 22 10 59 -15 43 -29 50 -31 42 -10 -3 8 -2 15 3 15 5 0 14 -7 21
-15 7 -8 17 -15 23 -15 6 0 24 -12 39 -27 25 -23 31 -25 39 -13 8 12 9 11 5
-6 -7 -23 14 -47 54 -63 24 -9 24 -10 3 -10 -13 -1 -24 -9 -28 -21 -3 -11 -15
-20 -25 -20 -10 0 -20 -4 -22 -9 -1 -5 -50 -16 -108 -26 -58 -9 -120 -19 -137
-22 -18 -3 -33 -9 -33 -14 0 -5 -15 -16 -32 -25 -57 -29 -97 -65 -91 -80 4
-11 9 -12 19 -3 11 9 14 8 14 -2 0 -9 3 -9 13 3 21 26 130 97 177 114 56 21
203 25 222 6 10 -10 10 -14 -1 -21 -7 -5 -11 -13 -7 -19 4 -7 -17 -10 -59 -11
-40 0 -92 -9 -137 -24 -94 -31 -149 -48 -168 -50 -8 -2 -21 -6 -28 -11 -8 -5
-32 -8 -55 -8 -26 1 -36 -2 -28 -7 8 -5 10 -14 7 -20 -4 -6 0 -11 11 -11 10 0
29 -3 42 -7 17 -4 22 -3 17 5 -10 17 15 14 38 -3 13 -10 24 -11 37 -5 10 6 32
10 49 10 27 0 30 -3 25 -21 -6 -18 -4 -20 17 -14 12 4 29 11 36 14 7 4 45 3
85 -2 40 -5 83 -9 97 -9 16 0 19 -2 8 -5 -10 -2 -18 -8 -18 -11 0 -4 -27 -5
-60 -4 -40 3 -60 0 -60 -7 0 -14 40 -30 58 -24 6 3 12 0 12 -6 0 -6 -7 -11
-15 -11 -8 0 -15 -5 -15 -11 0 -6 9 -8 20 -4 14 4 20 2 20 -8 0 -23 -25 -28
-145 -33 -60 -3 -111 -6 -113 -9 -2 -2 18 -6 45 -10 68 -9 84 -16 53 -25 -36
-9 106 -20 195 -15 71 5 243 37 291 55 14 6 34 20 45 33 10 12 18 18 19 13 0
-13 40 35 40 48 0 6 5 4 11 -4 8 -11 9 -7 5 19 -5 30 -4 32 11 20 9 -8 18 -13
20 -11 11 8 24 0 19 -13 -3 -8 -1 -15 4 -15 6 0 10 7 10 16 0 8 4 13 8 10 4
-2 14 -1 22 4 15 9 16 13 19 46 0 8 6 12 11 9 6 -4 10 5 10 19 0 14 5 26 11
26 7 0 8 7 4 18 -4 9 -7 25 -7 34 0 9 -7 19 -16 23 -14 5 -14 7 -2 15 10 6 11
10 3 10 -7 0 -10 7 -7 15 4 10 0 15 -10 15 -14 0 -15 3 -5 22 7 13 14 18 16
12 7 -21 53 8 53 34 0 12 -4 22 -8 22 -4 0 -8 17 -8 38 0 21 -8 49 -18 63
l-17 24 5 -39 c4 -21 9 -43 12 -50 3 -6 -1 -4 -8 4 -57 64 -157 138 -132 98 4
-7 3 -8 -5 -4 -6 4 -9 11 -6 16 7 11 -68 39 -116 43 -20 2 -41 7 -47 11 -18
11 -51 16 -122 20 -36 2 -74 8 -84 12 -14 5 -17 4 -12 -4 8 -13 -7 -15 -41 -6
-13 4 -23 13 -23 20 0 8 -6 14 -14 14 -8 0 -23 3 -33 7 -16 6 -17 5 -3 -12z
m260 -55 c0 -5 -7 -10 -16 -10 -8 0 -12 5 -9 10 3 6 10 10 16 10 5 0 9 -4 9
-10z m205 -48 c-3 -3 -11 0 -18 7 -9 10 -8 11 6 5 10 -3 15 -9 12 -12z m-225
-400 c18 -16 17 -18 -20 -33 -38 -16 -38 -16 -36 6 6 47 25 56 56 27z"/>
<path d="M1970 3669 l-25 -7 26 -1 c14 -1 30 -6 37 -13 7 -7 12 -9 12 -4 0 18
-26 32 -50 25z"/>
<path d="M1172 3210 c0 -14 2 -19 5 -12 2 6 2 18 0 25 -3 6 -5 1 -5 -13z"/>
<path d="M1155 3130 c-4 -17 -5 -34 -2 -36 2 -3 7 10 11 27 8 42 0 50 -9 9z"/>
<path d="M1151 2924 c0 -11 3 -14 6 -6 3 7 2 16 -1 19 -3 4 -6 -2 -5 -13z"/>
<path d="M3590 2922 c0 -5 7 -9 15 -9 8 0 12 4 9 9 -3 4 -9 8 -15 8 -5 0 -9
-4 -9 -8z"/>
<path d="M1162 2880 c0 -14 2 -19 5 -12 2 6 2 18 0 25 -3 6 -5 1 -5 -13z"/>
<path d="M1172 2790 c0 -14 2 -19 5 -12 2 6 2 18 0 25 -3 6 -5 1 -5 -13z"/>
<path d="M1182 2590 c0 -14 2 -19 5 -12 2 6 2 18 0 25 -3 6 -5 1 -5 -13z"/>
<path d="M4372 2575 c0 -16 2 -22 5 -12 2 9 2 23 0 30 -3 6 -5 -1 -5 -18z"/>
<path d="M3404 2545 c-10 -6 -30 -17 -44 -25 -25 -14 -31 -16 -51 -19 -5 0 -8
-5 -5 -9 3 -5 -15 -18 -39 -30 -25 -12 -45 -18 -45 -13 0 15 -24 7 -54 -17
-16 -12 -32 -22 -36 -22 -5 0 -6 -9 -3 -21 6 -20 5 -20 -33 -4 -36 15 -39 15
-51 -1 -7 -10 -13 -21 -13 -26 0 -4 -7 -8 -15 -8 -18 0 -21 -45 -4 -56 6 -3 9
-22 7 -40 -3 -23 0 -34 9 -34 7 0 13 -4 13 -10 0 -5 5 -10 10 -10 6 0 10 7 10
15 0 18 13 18 65 0 35 -13 41 -13 51 0 13 18 45 20 41 3 -1 -7 8 -14 21 -16
12 -2 22 -8 22 -13 0 -6 10 -9 23 -8 27 2 66 -13 66 -26 0 -5 5 -11 12 -14 8
-2 10 2 6 13 -4 9 -2 16 3 16 6 0 10 -5 10 -11 0 -6 9 -8 23 -3 12 4 27 7 34
7 7 0 15 7 17 14 3 8 11 11 16 8 6 -4 22 5 34 18 13 14 27 23 30 20 3 -4 6 -1
6 6 0 8 7 11 15 7 8 -3 15 -1 15 4 0 6 9 19 19 29 17 17 24 18 45 8 25 -12 37
-47 16 -47 -19 0 -10 -18 13 -25 12 -4 25 -7 30 -6 4 1 7 -13 7 -29 0 -20 6
-33 18 -37 9 -4 23 -13 31 -21 8 -8 16 -10 20 -4 3 6 27 8 54 5 41 -5 47 -8
41 -25 -4 -14 0 -21 15 -25 11 -3 18 -10 15 -15 -3 -5 3 -12 15 -15 12 -3 21
-10 21 -15 0 -6 -7 -7 -15 -4 -9 3 -18 -1 -21 -9 -8 -20 -58 -19 -75 1 -10 13
-10 20 5 45 15 25 15 30 2 35 -25 9 -51 -1 -50 -19 2 -21 -7 -21 -45 1 l-31
17 -27 -32 c-28 -32 -29 -32 -108 -29 -81 4 -192 21 -232 37 -14 5 -66 4 -125
-2 -114 -12 -132 -13 -165 -4 -13 3 -23 1 -23 -4 0 -13 -61 -22 -76 -11 -8 8
-14 8 -19 0 -4 -6 -14 -9 -22 -5 -13 4 -14 3 -3 -10 15 -18 -1 -20 -18 -3 -9
9 -15 10 -20 2 -9 -15 -38 -12 -82 8 -30 14 -150 32 -280 44 -19 1 -69 6 -110
9 -89 8 -180 29 -160 38 11 4 9 7 -8 13 -15 4 -21 12 -18 23 3 9 8 32 11 53 5
26 13 38 29 42 12 3 42 24 66 46 24 22 45 40 46 40 10 0 91 97 103 124 8 17
20 34 25 38 6 4 7 10 3 14 -3 4 -13 1 -21 -5 -8 -7 -28 -12 -43 -10 -36 3 -63
-9 -63 -28 0 -7 -6 -13 -12 -12 -28 3 -38 -2 -38 -21 0 -11 -8 -24 -17 -27
-10 -4 -23 -14 -30 -22 -6 -9 -16 -17 -22 -17 -6 -1 -17 -2 -25 -3 -8 0 -18
-10 -21 -21 -5 -17 -78 -74 -95 -75 -3 0 -19 -12 -35 -27 -16 -16 -36 -28 -43
-28 -8 0 -12 -6 -9 -13 3 -7 -1 -24 -9 -38 -15 -27 -19 -79 -5 -79 5 0 12 -18
16 -40 8 -50 21 -59 37 -26 6 14 15 26 20 26 4 0 8 4 8 10 0 5 -8 7 -17 3 -12
-4 -11 0 5 11 12 10 22 27 22 38 0 12 3 19 6 15 3 -3 6 -22 6 -41 0 -20 4 -36
8 -36 5 0 16 -3 26 -7 12 -4 15 -3 10 5 -13 21 33 13 51 -8 10 -11 25 -20 34
-20 9 0 41 -24 71 -52 30 -29 70 -62 88 -72 32 -19 33 -19 26 0 -7 17 -5 17
16 -2 23 -20 71 -44 88 -44 6 0 10 9 10 20 0 16 -5 19 -23 15 -43 -11 -71 27
-68 93 1 31 34 29 59 -4 l19 -27 6 32 c6 30 29 42 42 21 3 -5 17 -10 31 -10
13 0 24 5 24 10 0 19 76 11 95 -10 14 -16 20 -17 27 -8 6 10 8 10 8 -1 0 -11
3 -11 16 0 22 18 71 13 106 -12 22 -16 32 -18 42 -10 16 14 156 -4 167 -21 5
-8 16 -8 39 1 18 6 54 11 80 11 38 0 51 -4 63 -22 14 -22 15 -22 35 -5 26 23
71 19 86 -8 6 -11 12 -22 13 -24 2 -2 11 3 20 11 10 8 31 18 47 22 l29 7 -7
-48 c-7 -52 -34 -113 -51 -113 -17 0 -35 22 -35 42 0 23 -11 23 -31 0 -13 -15
-13 -20 -1 -31 9 -9 11 -23 7 -39 -5 -21 -4 -23 8 -14 7 6 30 9 50 7 22 -3 37
-1 37 5 0 6 9 2 21 -9 12 -11 28 -17 37 -14 12 5 14 1 7 -23 -4 -16 -8 -34 -8
-41 0 -6 -6 -9 -12 -7 -7 3 -26 -8 -43 -24 -28 -26 -112 -59 -136 -53 -4 1
-14 -3 -21 -9 -7 -5 -28 -10 -46 -10 -53 1 -114 -6 -128 -15 -8 -4 -17 -2 -22
6 -7 11 -9 10 -9 -3 0 -15 9 -18 54 -17 29 1 58 -1 64 -5 6 -3 22 -1 36 5 19
9 29 9 39 0 11 -9 17 -8 27 4 7 9 19 14 27 11 7 -3 13 -1 13 4 0 6 13 10 29
10 17 0 31 6 35 16 3 8 10 12 16 9 5 -3 10 -1 10 4 0 6 9 11 20 11 26 0 70 39
70 62 0 10 7 21 15 24 8 4 15 12 15 19 0 7 11 16 25 19 22 6 31 25 26 58 0 4
13 5 30 3 24 -3 28 -1 20 9 -8 10 -7 17 4 26 9 7 18 10 21 8 3 -3 21 -2 40 2
23 5 34 4 34 -4 0 -7 3 -6 9 2 5 8 21 12 37 10 28 -3 29 -5 26 -48 -2 -26 -9
-48 -17 -53 -8 -4 -15 -15 -15 -23 0 -8 -7 -28 -15 -45 -14 -27 -14 -30 1 -36
10 -4 20 0 26 10 5 10 17 17 26 17 9 0 27 8 40 18 20 16 24 29 26 90 2 44 -1
73 -8 75 -5 2 5 11 24 20 18 10 42 15 52 11 16 -5 23 5 19 28 0 4 6 5 14 2 22
-9 18 -51 -5 -71 -14 -12 -20 -30 -20 -58 -1 -38 -1 -39 -17 -20 -15 20 -15
20 -10 -3 5 -20 2 -23 -14 -19 -21 6 -26 -12 -8 -30 12 -12 -8 -60 -34 -82 -8
-6 -20 -25 -27 -41 -7 -17 -19 -30 -26 -30 -9 0 -13 -8 -10 -22 3 -23 -38
-152 -58 -177 -15 -20 -34 -52 -48 -83 -7 -16 -17 -28 -23 -28 -5 0 -19 -14
-30 -31 -11 -17 -30 -35 -42 -40 -13 -4 -23 -15 -23 -24 0 -9 -9 -15 -26 -15
-18 0 -28 -6 -31 -21 -3 -11 -11 -18 -19 -15 -7 3 -22 -6 -33 -20 -11 -14 -21
-19 -23 -13 -3 8 -9 6 -20 -5 -9 -9 -22 -16 -29 -16 -7 0 -20 -7 -29 -15 -9
-8 -26 -16 -39 -18 -12 -2 -26 -9 -30 -16 -10 -16 -22 -16 -33 1 -7 10 -11 10
-22 -5 -11 -14 -22 -16 -60 -11 -32 5 -46 3 -46 -5 0 -7 -4 -9 -10 -6 -5 3
-18 1 -29 -4 -16 -9 -18 -8 -14 8 4 16 1 19 -17 14 -12 -3 -24 -12 -27 -19 -7
-18 -23 -18 -23 0 0 20 -18 24 -65 15 -22 -4 -70 -5 -107 -2 -46 3 -68 1 -68
-6 0 -6 -7 -11 -15 -11 -8 0 -15 -6 -15 -12 0 -10 -2 -10 -8 0 -5 7 -16 10
-25 7 -8 -4 -26 -1 -38 6 -18 9 -24 9 -27 0 -3 -9 -7 -9 -18 0 -12 10 -18 8
-29 -7 -13 -18 -14 -17 -8 6 6 22 4 23 -9 12 -16 -13 -81 -6 -73 9 3 4 -8 6
-25 4 -17 -2 -28 0 -25 4 3 5 -10 15 -28 22 -40 15 -44 16 -60 18 -8 0 -24 10
-37 21 -13 11 -27 21 -32 21 -4 1 -11 3 -15 4 -5 2 -18 6 -30 10 -13 4 -21 11
-18 15 6 9 -34 26 -49 22 -5 -2 -16 3 -25 11 -9 7 -33 21 -53 31 -20 9 -40 21
-43 26 -3 6 -16 10 -28 10 -13 0 -32 7 -44 15 -20 14 -49 22 -81 24 -7 1 -10
6 -6 13 5 8 0 9 -15 5 -15 -4 -26 1 -36 17 -8 12 -37 30 -65 40 -27 10 -48 23
-47 29 3 17 -67 21 -81 4 -13 -15 -5 -57 12 -57 19 -1 58 -39 51 -50 -3 -5 1
-13 9 -16 9 -3 13 -10 10 -15 -3 -5 -1 -9 5 -9 6 0 8 -7 5 -15 -4 -8 -1 -15 6
-15 6 0 9 4 6 9 -3 4 1 17 9 27 16 21 17 18 20 -39 2 -44 12 -58 25 -37 8 12
10 12 10 1 0 -11 3 -11 17 0 15 13 16 12 10 -9 -7 -30 1 -52 16 -46 7 2 17 -6
22 -18 6 -12 21 -25 35 -29 14 -4 18 -8 10 -9 -10 -1 -8 -5 8 -12 12 -6 22
-18 22 -27 0 -20 37 -44 53 -34 7 4 7 0 -2 -10 -12 -15 -9 -21 12 -18 11 2 8
-24 -4 -36 -9 -9 -5 -14 15 -19 22 -5 26 -11 26 -43 0 -40 8 -47 83 -72 20 -7
37 -17 37 -22 0 -4 -4 -6 -8 -3 -4 2 -14 -4 -21 -15 -10 -18 -9 -21 8 -26 10
-3 22 -16 25 -29 4 -14 14 -24 24 -24 15 -1 15 -2 -2 -15 -11 -8 -28 -15 -37
-15 -10 0 -20 -4 -23 -9 -10 -15 5 -41 23 -42 9 -1 -1 -6 -22 -13 -21 -6 -42
-18 -46 -25 -5 -8 -13 -11 -19 -7 -5 3 -15 -1 -22 -9 -9 -11 -9 -15 -1 -15 7
0 10 -4 6 -9 -6 -11 23 -43 34 -37 4 3 5 -11 3 -30 -3 -20 -10 -34 -18 -34
-19 0 -27 -19 -14 -35 12 -14 11 -15 -67 -62 -26 -15 -49 -8 -64 19 -8 15 -8
19 0 14 6 -4 11 -2 11 3 0 12 1 12 -48 14 -19 1 -36 -1 -39 -5 -2 -5 10 -8 27
-8 26 0 29 -2 18 -14 -8 -9 -17 -11 -24 -5 -6 5 -19 7 -27 3 -12 -4 -21 4 -34
30 -10 21 -22 35 -30 32 -12 -5 -63 47 -63 64 0 10 -50 43 -56 37 -3 -2 11
-25 30 -50 41 -54 50 -83 22 -79 -12 2 -15 -1 -11 -8 6 -9 2 -9 -15 0 -12 6
-24 9 -28 6 -3 -3 -2 -6 2 -6 4 0 0 -7 -8 -16 -9 -8 -19 -13 -24 -10 -4 2 -14
0 -22 -5 -11 -7 -2 -9 30 -7 25 2 48 8 52 13 5 6 8 5 8 -3 0 -7 5 -10 11 -6 7
4 10 1 7 -7 -3 -8 -16 -14 -29 -15 -13 0 -35 -2 -49 -3 -23 -2 -24 -3 -5 -11
11 -5 16 -9 10 -9 -5 -1 -3 -6 5 -11 12 -8 11 -10 -7 -10 -12 0 -24 -6 -26
-12 -3 -7 -6 -4 -6 6 -1 16 -4 17 -13 8 -7 -7 -19 -12 -27 -12 -13 1 -12 4 3
15 20 15 20 15 0 16 -10 1 -23 1 -28 0 -15 -3 -35 20 -30 34 4 10 0 12 -15 8
-13 -3 -21 -1 -21 8 0 7 -3 10 -6 7 -9 -9 33 -70 89 -131 15 -17 27 -35 27
-41 0 -6 8 -19 18 -27 9 -9 30 -32 46 -52 l28 -37 625 0 c619 0 626 0 644 21
16 19 18 19 28 2 9 -15 11 -11 12 22 4 77 6 95 13 102 3 3 6 -2 6 -11 0 -12 5
-16 14 -13 10 4 13 1 10 -7 -4 -12 21 -41 35 -41 3 0 5 -6 3 -12 -2 -7 5 -24
14 -38 16 -25 20 -25 116 -24 100 1 100 1 95 25 -2 13 -1 24 4 24 4 0 2 14 -4
32 -9 24 -9 32 0 35 8 3 9 12 1 34 -5 16 -14 27 -18 24 -9 -5 -30 47 -30 74 0
9 -7 28 -14 44 -14 25 -13 27 5 27 10 0 19 5 19 10 0 6 -9 10 -20 10 -11 0
-20 7 -20 15 0 8 -3 15 -7 15 -5 0 -8 10 -8 23 -1 12 -4 32 -9 45 -6 17 -4 22
9 22 8 0 18 -7 21 -15 4 -8 12 -15 20 -15 8 0 14 -5 14 -11 0 -5 8 -9 18 -7 9
1 23 -1 30 -6 21 -13 26 1 9 25 -9 11 -13 28 -10 35 3 8 -1 14 -11 14 -10 0
-13 6 -10 15 4 9 0 15 -7 15 -12 0 -12 2 0 9 11 7 7 13 -17 25 -34 18 -52 60
-33 79 6 6 12 9 14 6 31 -39 98 -145 116 -182 12 -26 27 -44 33 -41 6 4 8 -1
3 -15 -4 -12 -2 -21 4 -21 6 0 11 -7 11 -15 0 -8 5 -15 11 -15 6 0 8 -9 4 -20
-4 -11 -2 -20 4 -20 5 0 21 -11 35 -25 14 -14 21 -25 16 -25 -6 0 -10 -7 -10
-16 0 -14 3 -14 16 -3 13 10 17 10 25 -2 6 -9 4 -18 -7 -25 -12 -9 -12 -13 -2
-17 10 -4 10 -8 -2 -16 -12 -9 -11 -11 8 -11 13 0 22 -6 22 -16 0 -12 7 -15
25 -12 13 3 22 1 19 -3 -2 -4 5 -13 16 -19 11 -6 18 -15 16 -19 -3 -5 16 -15
42 -24 26 -9 40 -16 31 -16 -26 -1 -31 -38 -5 -45 34 -9 176 -7 176 3 0 5 3
18 6 28 4 13 3 15 -4 4 -7 -10 -11 -10 -17 -1 -4 7 -1 16 6 21 10 6 8 9 -8 9
-14 0 -23 6 -23 15 0 8 -5 15 -11 15 -6 0 -9 6 -6 14 3 7 -8 28 -24 45 -16 18
-29 41 -29 52 0 11 -7 19 -16 19 -10 0 -14 6 -11 14 3 8 0 20 -8 26 -10 8 -14
8 -18 -2 -3 -7 -6 -1 -6 15 -1 20 -6 27 -21 27 -23 0 -26 10 -8 28 9 9 8 12
-8 12 -10 0 -25 9 -32 20 -7 12 -8 20 -2 20 5 0 10 5 10 11 0 5 -5 7 -11 3 -8
-4 -9 1 -4 17 4 13 4 21 0 17 -10 -10 -45 30 -45 52 0 9 -5 21 -12 28 -7 7 -8
12 -4 12 5 0 3 7 -4 15 -7 8 -22 15 -34 15 -22 0 -48 25 -54 51 -2 8 -8 16
-13 17 -5 2 -7 8 -3 13 3 5 -6 9 -20 9 -17 0 -26 5 -26 16 0 12 -6 15 -23 10
-16 -4 -27 1 -37 17 -8 12 -15 27 -16 32 0 6 -2 14 -2 19 -1 5 -9 3 -17 -4
-13 -11 -15 -8 -9 26 7 44 42 113 58 115 6 1 19 0 30 -1 10 -1 15 3 12 8 -3 6
8 21 26 33 18 13 36 28 40 35 4 6 19 15 34 18 14 4 45 27 67 52 23 25 62 55
87 66 50 23 143 100 233 193 53 54 96 115 82 115 -3 0 3 10 15 22 11 12 20 27
20 34 0 6 7 17 15 24 8 7 12 16 9 21 -3 5 -1 9 4 9 10 0 94 166 111 219 16 49
14 59 -16 87 -15 14 -21 24 -13 22 8 -2 23 -12 33 -23 18 -20 18 -20 7 3 -13
27 -4 62 16 62 16 0 19 16 4 25 -5 3 -10 12 -9 18 0 9 2 9 6 0 10 -25 20 -12
27 33 3 26 10 52 14 58 5 6 15 32 22 59 7 26 17 50 21 53 5 3 9 18 9 34 0 16
7 56 16 90 8 33 13 66 10 73 -2 7 -5 2 -5 -10 -1 -13 -5 -23 -11 -23 -5 0 -10
-7 -10 -15 0 -8 -4 -15 -10 -15 -5 0 -10 6 -10 14 0 8 -7 17 -16 20 -12 5 -15
2 -10 -10 4 -12 2 -15 -9 -10 -9 3 -15 0 -15 -8 0 -8 -13 -16 -30 -18 -17 -3
-30 0 -30 6 0 7 -3 7 -8 1 -9 -13 -49 -15 -89 -5 -26 6 -33 5 -33 -5 0 -9 -6
-12 -17 -8 -12 5 -15 2 -10 -10 5 -14 -1 -17 -43 -18 -28 -1 -56 -2 -62 -3 -7
-1 -14 12 -16 28 -3 23 0 28 13 22 9 -3 19 -6 21 -6 3 0 2 -5 -1 -10 -8 -13
20 -24 40 -17 11 5 12 12 4 36 -9 27 -13 29 -49 24 -51 -7 -97 12 -104 43 -4
14 -18 34 -31 46 -14 12 -25 27 -25 34 0 14 -60 64 -77 64 -5 0 -19 9 -31 21
-23 21 -42 18 -42 -6 0 -45 -117 -5 -148 50 -12 22 -55 27 -88 10z m301 -313
c-7 -8 -35 7 -35 18 0 6 7 6 20 -2 10 -7 17 -14 15 -16z m-1505 -38 c0 -8 -4
-14 -9 -14 -6 0 -9 9 -8 19 1 22 17 18 17 -5z m1530 -34 c0 -5 -5 -10 -11 -10
-5 0 -7 5 -4 10 3 6 8 10 11 10 2 0 4 -4 4 -10z m-1557 -17 c-3 -7 -9 -13 -14
-13 -5 0 -9 6 -9 13 0 8 6 14 14 14 8 0 12 -6 9 -14z m1987 -156 c0 -7 9 -23
21 -35 l20 -23 -30 6 c-23 4 -31 1 -31 -9 0 -8 -6 -21 -13 -28 -7 -7 -18 -22
-25 -33 l-11 -20 -2 20 c-3 49 4 76 29 104 29 33 42 38 42 18z m51 -13 c11
-14 10 -15 -11 -12 -13 1 -25 9 -28 16 -5 17 23 15 39 -4z m19 -28 c0 -3 -4
-8 -10 -11 -5 -3 -10 -1 -10 4 0 6 5 11 10 11 6 0 10 -2 10 -4z m-153 -98 c-3
-8 -6 -5 -6 6 -1 11 2 17 5 13 3 -3 4 -12 1 -19z m-54 -63 c-7 -21 -13 -19
-13 6 0 11 4 18 10 14 5 -3 7 -12 3 -20z m163 8 c-4 -9 -1 -20 6 -25 10 -6 10
-8 0 -8 -8 0 -16 9 -19 20 -3 11 -9 17 -14 14 -5 -3 -9 0 -9 5 0 6 9 11 21 11
16 0 19 -4 15 -17z m-29 -33 c1 -11 -2 -18 -8 -15 -11 7 -12 35 -1 35 4 0 8
-9 9 -20z m-854 -1198 c3 -4 -6 -21 -19 -37 -25 -32 -32 -22 -12 20 11 25 23
32 31 17z m-53 -102 c0 -11 -4 -20 -9 -20 -5 0 -7 9 -4 20 3 11 7 20 9 20 2 0
4 -9 4 -20z m-28 -132 c2 -7 6 -33 7 -58 2 -27 9 -49 19 -57 15 -10 14 -11 -5
-6 -13 3 -23 10 -24 17 -3 52 -9 98 -14 106 -3 6 -2 10 3 10 6 0 12 -6 14 -12z
m-1372 -43 c0 -5 -5 -3 -10 5 -5 8 -10 20 -10 25 0 6 5 3 10 -5 5 -8 10 -19
10 -25z m1447 -27 c-3 -8 -6 -5 -6 6 -1 11 2 17 5 13 3 -3 4 -12 1 -19z
m-1404 -38 c-3 -11 -7 -20 -9 -20 -2 0 -4 9 -4 20 0 11 4 20 9 20 5 0 7 -9 4
-20z m1432 -30 c-3 -5 0 -18 7 -29 10 -17 10 -23 -1 -33 -11 -11 -12 -9 -6 10
5 19 2 25 -14 29 -17 4 -19 9 -10 24 5 11 14 17 20 14 5 -4 7 -10 4 -15z m-85
0 c0 -5 -4 -10 -10 -10 -5 0 -10 5 -10 10 0 6 5 10 10 10 6 0 10 -4 10 -10z
m391 -13 c-13 -13 -26 -3 -16 12 3 6 11 8 17 5 6 -4 6 -10 -1 -17z m-1866 -7
c-3 -5 -2 -10 4 -10 6 0 15 -10 22 -21 7 -13 7 -19 1 -15 -6 3 -13 2 -17 -4
-4 -6 -11 -8 -16 -5 -13 8 -11 65 2 65 5 0 7 -4 4 -10z m1359 -16 c6 -15 4
-15 -11 -3 -10 7 -20 15 -22 16 -2 2 3 3 11 3 9 0 19 -7 22 -16z m129 -14 c-3
-11 -7 -20 -8 -20 -1 0 -5 9 -8 20 -3 12 0 20 8 20 8 0 11 -8 8 -20z m57 16
c0 -2 -8 -10 -17 -17 -16 -13 -17 -12 -4 4 13 16 21 21 21 13z m18 -56 c15 0
15 -2 2 -10 -13 -8 -13 -10 1 -10 19 0 34 -29 21 -42 -4 -4 -17 -1 -28 7 -19
15 -19 15 1 9 19 -5 18 -4 -2 14 -12 11 -19 22 -16 26 4 3 1 6 -5 6 -7 0 -9 7
-4 18 6 16 7 16 10 0 2 -10 11 -18 20 -18z m-1525 -10 c3 -11 1 -20 -4 -20 -5
0 -9 2 -9 4 0 2 -3 11 -6 20 -3 9 -2 16 4 16 5 0 12 -9 15 -20z m1450 0 c3
-11 1 -23 -4 -26 -5 -3 -9 6 -9 20 0 31 6 34 13 6z"/>
<path d="M2840 2517 c-3 -3 -19 -8 -35 -11 -17 -2 -31 -5 -32 -6 -4 -3 -20 -7
-33 -9 -20 -2 -9 -19 28 -45 44 -30 116 -37 126 -11 4 11 11 13 28 6 13 -4 29
-6 36 -4 6 3 12 1 12 -4 0 -5 20 -8 44 -8 24 0 42 -3 40 -6 -2 -3 8 -4 22 -1
20 3 23 9 18 26 -3 11 -17 32 -30 46 -21 22 -33 25 -121 28 -54 2 -100 2 -103
-1z"/>
<path d="M4362 2390 c0 -19 2 -27 5 -17 2 9 2 25 0 35 -3 9 -5 1 -5 -18z"/>
<path d="M1292 2305 c15 -16 29 -27 31 -24 3 2 -10 15 -27 28 l-31 24 27 -28z"/>
<path d="M1441 2314 c-1 -13 -43 -33 -74 -36 -12 -1 3 -4 33 -7 30 -3 56 -6
57 -6 1 1 -2 14 -6 31 -5 16 -10 24 -10 18z"/>
<path d="M1441 2234 c0 -11 3 -14 6 -6 3 7 2 16 -1 19 -3 4 -6 -2 -5 -13z"/>
<path d="M3930 2220 c0 -5 5 -10 11 -10 5 0 7 5 4 10 -3 6 -8 10 -11 10 -2 0
-4 -4 -4 -10z"/>
<path d="M3558 2214 c-8 -14 7 -61 15 -47 4 6 3 21 -1 34 -5 12 -11 18 -14 13z"/>
<path d="M3647 2173 c-13 -12 -7 -23 13 -23 11 0 20 7 20 15 0 15 -21 21 -33
8z"/>
<path d="M2591 1846 c-21 -22 -21 -24 -4 -28 15 -3 43 28 43 48 0 11 -19 1
-39 -20z"/>
<path d="M2721 1835 c-23 -40 -25 -45 -13 -45 10 0 47 69 40 75 -3 3 -15 -10
-27 -30z"/>
<path d="M4225 1857 c-4 -10 -5 -21 -1 -24 10 -10 18 4 13 24 -4 17 -4 17 -12
0z"/>
<path d="M1291 1794 c0 -11 3 -14 6 -6 3 7 2 16 -1 19 -3 4 -6 -2 -5 -13z"/>
<path d="M3076 1783 c-6 -14 -5 -15 5 -6 7 7 10 15 7 18 -3 3 -9 -2 -12 -12z"/>
<path d="M1259 1683 c-13 -16 -12 -17 4 -4 9 7 17 15 17 17 0 8 -8 3 -21 -13z"/>
<path d="M3866 1617 c3 -10 9 -15 12 -12 3 3 0 11 -7 18 -10 9 -11 8 -5 -6z"/>
<path d="M3041 1546 c-14 -17 -3 -26 35 -31 26 -2 29 2 14 25 -9 13 -10 13
-10 0 -1 -12 -3 -12 -14 3 -11 15 -15 15 -25 3z"/>
<path d="M3510 1479 c0 -5 5 -7 10 -4 6 3 10 8 10 11 0 2 -4 4 -10 4 -5 0 -10
-5 -10 -11z"/>
<path d="M3003 1413 c9 -2 23 -2 30 0 6 3 -1 5 -18 5 -16 0 -22 -2 -12 -5z"/>
<path d="M1188 1358 c2 -24 9 -47 14 -53 7 -7 9 -2 4 15 -3 14 -6 37 -6 53 0
15 -3 27 -8 27 -4 0 -6 -19 -4 -42z"/>
<path d="M935 1250 c-3 -6 1 -7 10 -4 8 4 22 1 30 -6 12 -10 15 -9 15 4 0 18
-45 23 -55 6z"/>
<path d="M1216 1233 c9 -42 28 -83 38 -83 4 0 6 6 3 14 -3 8 -11 32 -18 55
-14 46 -33 57 -23 14z"/>
<path d="M820 1198 c-25 -12 -40 -23 -34 -25 6 -2 31 8 55 22 53 30 41 32 -21
3z"/>
<path d="M1037 1185 c-4 -8 -2 -17 3 -20 6 -4 10 3 10 14 0 25 -6 27 -13 6z"/>
<path d="M979 1153 c-12 -16 -12 -17 1 -7 8 6 22 14 30 17 13 5 12 6 -1 6 -9
1 -23 -7 -30 -16z"/>
<path d="M731 1146 c-7 -8 -26 -22 -44 -31 -64 -33 -77 -42 -70 -48 3 -4 -5
-7 -19 -7 -14 0 -31 -6 -38 -14 -6 -8 -18 -12 -26 -9 -8 3 -14 0 -14 -6 0 -6
-9 -11 -19 -11 -11 0 -23 -4 -26 -10 -3 -5 3 -10 14 -10 11 0 22 4 26 9 3 5
20 13 37 17 40 8 63 21 107 57 18 16 49 36 67 45 19 8 34 19 34 24 0 13 -16 9
-29 -6z"/>
<path d="M940 1140 c-6 -11 -22 -23 -35 -26 -14 -3 -25 -10 -25 -15 0 -5 -11
-14 -25 -19 -14 -5 -25 -14 -25 -20 0 -5 -5 -10 -11 -10 -6 0 -25 -11 -43 -25
-18 -14 -37 -25 -43 -25 -5 0 -20 -9 -33 -20 -12 -11 -26 -17 -31 -15 -4 3
-13 -4 -19 -15 -6 -11 -15 -18 -20 -15 -5 3 -17 1 -27 -4 -10 -5 -26 -12 -37
-15 -15 -5 -16 -9 -6 -21 11 -13 20 -11 69 16 31 17 63 40 73 50 9 11 19 19
22 19 17 0 236 153 236 165 0 21 -7 19 -20 -5z"/>
<path d="M1050 1126 c0 -2 7 -6 15 -10 8 -3 15 -1 15 4 0 6 -7 10 -15 10 -8 0
-15 -2 -15 -4z"/>
<path d="M1005 1100 c-3 -5 -2 -10 4 -10 5 0 13 5 16 10 3 6 2 10 -4 10 -5 0
-13 -4 -16 -10z"/>
<path d="M956 1085 c-19 -14 -19 -15 7 -15 19 0 25 4 21 15 -4 8 -7 15 -8 15
0 0 -10 -7 -20 -15z"/>
<path d="M845 1032 c-28 -15 -66 -39 -85 -53 -19 -14 -65 -42 -102 -63 -61
-33 -90 -56 -72 -56 8 0 96 50 104 59 6 8 41 29 60 38 8 4 17 9 20 13 3 3 26
19 51 35 26 17 55 35 65 42 34 21 10 13 -41 -15z"/>
<path d="M1125 1050 c3 -5 8 -10 11 -10 2 0 4 5 4 10 0 6 -5 10 -11 10 -5 0
-7 -4 -4 -10z"/>
<path d="M3510 871 c0 -5 14 -14 30 -20 17 -5 30 -8 30 -6 0 3 -13 11 -30 20
-16 9 -30 11 -30 6z"/>
<path d="M3600 826 c0 -2 7 -7 16 -10 8 -3 12 -2 9 4 -6 10 -25 14 -25 6z"/>
<path d="M3757 749 c7 -7 15 -10 18 -7 3 3 -2 9 -12 12 -14 6 -15 5 -6 -5z"/>
<path d="M3790 740 c0 -5 5 -10 11 -10 5 0 7 5 4 10 -3 6 -8 10 -11 10 -2 0
-4 -4 -4 -10z"/>
<path d="M3835 720 c3 -5 16 -10 28 -9 21 0 21 1 2 9 -28 12 -37 12 -30 0z"/>
<path d="M3415 711 c-3 -5 -1 -12 5 -16 5 -3 10 1 10 9 0 18 -6 21 -15 7z"/>
<path d="M1134 553 c3 -7 -1 -10 -8 -7 -21 8 -27 -11 -10 -32 9 -10 13 -13 9
-6 -3 6 1 15 9 18 9 3 16 12 16 19 0 7 6 15 13 18 6 3 2 4 -11 4 -13 -1 -21
-6 -18 -14z"/>
<path d="M1676 541 c-3 -5 1 -11 9 -14 9 -4 12 -1 8 9 -6 16 -10 17 -17 5z"/>
<path d="M2166 531 c-4 -5 3 -7 14 -4 23 6 26 13 6 13 -8 0 -17 -4 -20 -9z"/>
<path d="M1181 523 c-1 -7 -9 -13 -20 -13 -10 0 -24 -7 -31 -15 -14 -17 -45
-21 -35 -5 3 6 -1 10 -9 10 -9 0 -16 5 -16 12 0 6 -3 9 -6 5 -3 -3 -2 -12 2
-19 5 -7 9 -17 9 -23 0 -5 18 -9 39 -7 25 2 36 -1 31 -7 -3 -6 -1 -11 4 -11 6
0 11 5 11 10 0 6 8 10 18 10 15 -1 14 -3 -4 -18 -18 -15 -19 -21 -9 -35 17
-23 49 -23 41 0 -6 14 -3 14 15 -3 12 -10 19 -13 15 -6 -5 8 1 21 16 33 l23
21 -31 -5 c-23 -3 -36 1 -52 18 -14 15 -18 25 -11 27 7 2 9 11 6 19 -3 9 -6
10 -6 2z"/>
<path d="M1705 486 c10 -14 22 -26 27 -26 13 0 -15 43 -31 48 -9 3 -7 -5 4
-22z"/>
<path d="M150 420 c0 -5 5 -10 11 -10 5 0 7 5 4 10 -3 6 -8 10 -11 10 -2 0 -4
-4 -4 -10z"/>
<path d="M1263 397 l-22 -12 25 -12 c22 -10 25 -10 20 3 -3 9 -1 12 4 9 6 -3
10 1 10 9 0 19 -8 19 -37 3z"/>
<path d="M161 374 c0 -11 3 -14 6 -6 3 7 2 16 -1 19 -3 4 -6 -2 -5 -13z"/>
<path d="M1754 365 c3 -8 0 -15 -7 -15 -7 0 -4 -5 6 -11 10 -6 20 -9 22 -7 8
7 -7 48 -17 48 -6 0 -8 -7 -4 -15z"/>
<path d="M1300 356 c0 -9 7 -16 16 -16 9 0 14 5 12 12 -6 18 -28 21 -28 4z"/>
<path d="M163 335 c3 -11 11 -60 18 -108 7 -48 16 -84 20 -80 9 9 -22 188 -35
200 -5 4 -6 -1 -3 -12z"/>
<path d="M1644 338 c-4 -7 -4 -10 1 -6 4 4 15 2 24 -5 14 -11 14 -10 2 6 -16
20 -18 21 -27 5z"/>
<path d="M1307 324 c-14 -15 -6 -32 17 -38 15 -4 28 -17 34 -36 6 -17 18 -30
28 -30 12 0 15 -6 10 -26 -5 -20 -4 -25 6 -21 8 3 25 -1 39 -9 13 -7 20 -13
15 -14 -13 0 55 -60 68 -60 6 0 3 -5 -6 -11 -21 -12 -24 -34 -5 -26 8 3 20 1
28 -5 11 -8 9 -8 -6 -4 -20 6 -20 6 -1 -9 11 -8 16 -15 10 -15 -5 0 -2 -5 6
-10 8 -5 36 -9 63 -8 38 1 47 5 47 19 0 9 6 20 13 23 6 3 0 3 -15 0 -17 -4
-28 -2 -28 5 0 6 -10 11 -22 11 -13 0 -18 4 -13 8 13 9 17 32 6 32 -5 0 -12
-6 -15 -12 -4 -7 -4 -3 -2 9 4 20 1 22 -19 17 -20 -5 -23 -3 -18 16 4 15 0 26
-11 32 -9 5 -16 16 -16 24 0 8 -6 14 -12 12 -7 -1 -33 16 -56 39 -25 24 -50
39 -58 36 -8 -3 -14 0 -14 7 0 6 -4 8 -10 5 -6 -4 -9 4 -7 17 1 18 -3 24 -23
26 -14 2 -29 0 -33 -4z"/>
<path d="M1085 130 c3 -5 8 -10 11 -10 2 0 4 5 4 10 0 6 -5 10 -11 10 -5 0 -7
-4 -4 -10z"/>
<path d="M198 123 c-9 -15 -1 -104 9 -114 8 -8 10 6 6 52 -6 67 -8 76 -15 62z"/>
<path d="M3578 88 c9 -9 15 -9 24 0 9 9 7 12 -12 12 -19 0 -21 -3 -12 -12z"/>
<path d="M1206 63 c-6 -14 -5 -15 5 -6 7 7 10 15 7 18 -3 3 -9 -2 -12 -12z"/>
<path d="M1240 60 c-12 -8 -11 -10 8 -10 12 0 22 5 22 10 0 13 -11 13 -30 0z"/>
<path d="M350 45 c0 -19 6 -19 14 0 3 8 1 15 -4 15 -6 0 -10 -7 -10 -15z"/>
<path d="M1218 3 c7 -3 16 -2 19 1 4 3 -2 6 -13 5 -11 0 -14 -3 -6 -6z"/>
</g>
</svg>
